<?xml version="1.0" encoding="utf-8"?>
<!-- Generator: Adobe Illustrator 23.0.3, SVG Export Plug-In . SVG Version: 6.00 Build 0)  -->
<svg version="1.1" id="Capa_1" xmlns="http://www.w3.org/2000/svg" xmlns:xlink="http://www.w3.org/1999/xlink" x="0px" y="0px"
	 viewBox="0 0 1200 1200" enable-background="new 0 0 1200 1200" xml:space="preserve">
<path fill="#295970" d="M1142.942,704.898l-45.716,25.578l-47.202-26.393l47.161-23.964L1142.942,704.898z M651.758,620.827
	l46.156-28.703v-52.681l-46.156,24.994V620.827z M645.195,554.113l45.757-24.779l-45.716-25.578l-47.202,26.393L645.195,554.113z
	 M1103.844,669.796L1150,694.79v-52.681l-46.156-28.703V669.796z M492.333,466.329l17.81,17.81c0.703,0.702,1.061,1.63,1.061,2.562
	c0,0.768-0.243,1.539-0.738,2.191l-17.811,23.423c-0.685,0.9-1.751,1.429-2.883,1.429c-1.132,0-2.199-0.529-2.883-1.429
	l-17.81-23.423c-1.096-1.443-0.962-3.473,0.323-4.754l17.81-17.81C488.627,464.915,490.919,464.915,492.333,466.329z
	 M502.786,487.026l-13.013-13.014l-13.013,13.014l13.013,17.114L502.786,487.026z M603.64,394.291l8.904-15.385l17.936,0.265
	l-9.673-14.893l0.554-0.957h-35.087l-9.069,15.671l17.654-0.322L603.64,394.291z M495.904,457.5l17.411-17.274
	c1.258-1.248,3.233-1.403,4.669-0.368l23.957,17.274c0.945,0.682,1.504,1.776,1.504,2.938c0,0.009,0,0.016,0,0.024
	c-0.007,1.171-0.581,2.268-1.542,2.941l-24.232,17.001c-1.435,1.006-3.386,0.84-4.631-0.395l-17.137-17.001
	C494.535,461.286,494.531,458.861,495.904,457.5z M503.598,460.07l12.395,12.296l17.583-12.337l-17.337-12.501L503.598,460.07z
	 M614.472,479.092c-0.975,1.744-0.341,3.954,1.409,4.923l17.748,9.85c1.749,0.97,3.953,0.34,4.923-1.409
	c0.31-0.556,0.456-1.159,0.456-1.754c0-1.273-0.672-2.508-1.865-3.169l-17.748-9.85
	C617.647,476.712,615.443,477.343,614.472,479.092z M697.913,467.268l-46.825-27.69v53.469l46.825,26.199V467.268z M702.944,604.009
	c-1.978,0.037-3.557,1.651-3.557,3.62c0,0.023,0,0.045,0,0.067l0.368,20.295c0.037,2.001,1.688,3.592,3.687,3.557
	c1.978-0.037,3.557-1.651,3.557-3.62c0-0.023,0-0.045,0-0.067l-0.368-20.295C706.594,605.565,704.943,603.973,702.944,604.009z
	 M836.766,639.248l-9.199-15.896l-8.453,16.159l-17.949-0.569l9.243,15.971l-9.673,14.893l17.936-0.265l8.904,15.385l8.781-15.621
	l17.654,0.322l-9.082-15.692l9.275-14.662L836.766,639.248z M773.161,493.035l17.578-10.148c1.162-0.671,1.811-1.889,1.811-3.139
	c0-0.616-0.155-1.238-0.485-1.808c-1-1.732-3.214-2.326-4.948-1.326l-17.578,10.148c-1.733,1-2.326,3.22-1.326,4.947
	C769.214,493.441,771.428,494.035,773.161,493.035z M780.395,390.077c-0.795-1.389-0.314-3.159,1.074-3.954l11.083-6.347
	l-9.899-5.715c-1.386-0.801-1.86-2.572-1.061-3.959c0.538-0.929,1.511-1.449,2.513-1.449c0.491,0,0.99,0.125,1.446,0.388
	l12.821,7.402l4.552-2.607v-10.514h5.796v7.195l12.355-7.075l-0.207-0.12h12.077l-0.253,0.145l11.076,6.408v-6.553h5.795v9.906
	l5.714,3.306l13.015-7.514c0.457-0.263,0.955-0.388,1.446-0.388c1.002,0,1.975,0.519,2.513,1.449
	c0.799,1.386,0.325,3.158-1.061,3.958l-10.122,5.844l11.295,6.535c1.385,0.802,1.857,2.575,1.057,3.96
	c-0.802,1.385-2.575,1.858-3.96,1.057l-11.148-6.45v11.359c0,1.6-1.298,2.898-2.898,2.898c-1.6,0-2.898-1.298-2.898-2.898v-14.712
	l-5.237-3.03l-17.499,10.103v7.254l12.832,7.586c1.378,0.815,1.835,2.592,1.02,3.968c-0.814,1.378-2.589,1.832-3.968,1.02
	l-9.884-5.843v12.219c0,1.6-1.297,2.898-2.898,2.898c-1.6,0-2.898-1.298-2.898-2.898v-12.322l-10.076,5.68
	c-1.392,0.784-3.161,0.293-3.947-1.1c-0.785-1.395-0.293-3.162,1.1-3.947l12.923-7.284v-6.491l-18.252-10.539l-4.405,2.523v14.937
	c0,1.6-1.298,2.898-2.898,2.898c-1.6,0-2.898-1.297-2.898-2.898v-11.619l-11.182,6.404
	C782.961,391.947,781.188,391.464,780.395,390.077z M829.779,382.013l11.71-6.76l-11.71-6.775V382.013z M811.551,375.573
	l12.434,7.179v-14.299L811.551,375.573z M1134.329,434.608l0.323,17.654l-15.621,8.781l15.385,8.904l-0.265,17.936l14.893-9.673
	l0.957,0.554v-13.289v-10.823v-10.975L1134.329,434.608z M1067.197,655.573c-0.986,1.74-0.369,3.951,1.372,4.935l17.674,9.978
	c1.743,0.983,3.952,0.369,4.935-1.372c0.318-0.563,0.468-1.174,0.468-1.778c0-1.263-0.662-2.492-1.841-3.156l-17.675-9.978
	C1070.389,653.218,1068.18,653.832,1067.197,655.573z M470.877,437.478c-1.214-1.211-1.41-3.111-0.467-4.547l16.335-24.898
	c0.669-1.021,1.807-1.635,3.028-1.635c1.221,0,2.359,0.614,3.028,1.635l16.336,24.898c0.399,0.607,0.594,1.299,0.594,1.985
	c0,0.935-0.361,1.863-1.061,2.562l-16.336,16.335c-1.415,1.415-3.707,1.415-5.121,0L470.877,437.478z M478.083,434.44l11.69,11.69
	l11.691-11.69l-11.691-17.819L478.083,434.44z M702.112,455.331c2,0,3.622-1.621,3.622-3.622v-20.298
	c0-2.001-1.621-3.622-3.622-3.622c-2.001,0-3.622,1.621-3.622,3.622v20.298C698.49,453.71,700.111,455.331,702.112,455.331z
	 M762.846,555.578l45.219-26.253l-46.512-24.342l-45.297,24.527L762.846,555.578z M756.886,566.226l-46.77-26.167v52.096
	l46.77,29.597V566.226z M774.441,563.913c-1.764-0.942-3.958-0.276-4.901,1.488c-0.942,1.763-0.277,3.957,1.488,4.901l17.904,9.562
	c1.764,0.942,3.959,0.276,4.901-1.488c0.29-0.543,0.429-1.128,0.429-1.703c0-1.293-0.696-2.545-1.917-3.197L774.441,563.913z
	 M755.77,439.689l-45.654,27.543v51.726l45.654-24.721V439.689z M1103.175,794.655l46.825-27.69v-51.977l-46.825,26.199V794.655z
	 M289.488,635.779c0.273,0.462,0.403,0.97,0.403,1.471c0,0.991-0.508,1.956-1.423,2.497c-1.376,0.815-3.154,0.358-3.968-1.02
	l-7.628-12.903h-7.37l-10.106,17.504l2.965,5.126l15.01,0.169c1.589,0.019,2.865,1.312,2.865,2.898c0,0.01,0,0.021,0,0.032
	c-0.018,1.6-1.33,2.883-2.93,2.865l-11.57-0.131l6.715,11.606c0.264,0.457,0.389,0.956,0.389,1.449c0,1-0.517,1.973-1.446,2.511
	c-1.385,0.801-3.158,0.328-3.96-1.057l-6.727-11.628l-5.851,9.874c-0.816,1.377-2.593,1.832-3.97,1.016
	c-1.378-0.816-1.831-2.595-1.016-3.97l7.509-12.671l-2.622-4.532h-20.894l-2.607,4.552l7.402,12.821
	c0.263,0.456,0.388,0.955,0.388,1.446c0,1.002-0.519,1.975-1.449,2.513c-1.386,0.799-3.158,0.325-3.959-1.061l-5.715-9.899
	l-6.347,11.083c-0.795,1.388-2.565,1.869-3.954,1.074c-1.388-0.794-1.871-2.567-1.074-3.954l6.404-11.182h-11.619
	c-1.6,0-2.898-1.297-2.898-2.897c0-1.6,1.297-2.898,2.898-2.898h14.937l2.523-4.405l-10.539-18.252h-6.491l-7.284,12.922
	c-0.785,1.393-2.552,1.886-3.947,1.1c-1.393-0.787-1.884-2.555-1.1-3.947l5.68-10.076h-12.322c-1.6,0-2.898-1.297-2.898-2.898
	s1.298-2.898,2.898-2.898h12.219l-5.843-9.884c-0.812-1.379-0.358-3.155,1.02-3.968c1.376-0.815,3.154-0.358,3.968,1.02
	l7.586,12.832h7.254l10.103-17.499l-3.03-5.236h-14.712c-1.6,0-2.898-1.297-2.898-2.897c0-1.6,1.298-2.898,2.898-2.898h11.359
	l-6.45-11.148c-0.801-1.385-0.328-3.158,1.057-3.96c1.385-0.801,3.158-0.328,3.96,1.057l6.535,11.295l5.844-10.122
	c0.8-1.387,2.572-1.86,3.958-1.061c0.93,0.538,1.449,1.511,1.449,2.513c0,0.491-0.124,0.989-0.388,1.446l-7.514,13.015l3.306,5.714
	h19.423l3.438-6.003l-7.44-12.556c-0.815-1.375-0.362-3.153,1.016-3.97c1.377-0.816,3.153-0.361,3.97,1.016l5.765,9.729
	l6.302-11.004c0.795-1.388,2.565-1.869,3.953-1.074c0.934,0.535,1.457,1.513,1.457,2.517c0,0.488-0.123,0.984-0.384,1.437
	l-6.386,11.152l11.743-0.134c1.6-0.018,2.912,1.265,2.93,2.865c0,0.011,0,0.023,0,0.032c0,1.586-1.276,2.879-2.865,2.898
	l-15.149,0.172l-3.281,5.729l9.8,16.975h8.166l7.245-12.851c0.786-1.393,2.552-1.886,3.947-1.101
	c0.944,0.532,1.475,1.515,1.475,2.527c0,0.483-0.12,0.97-0.374,1.42l-5.64,10.005h11.384c1.6,0,2.898,1.297,2.898,2.898
	s-1.297,2.898-2.898,2.898h-11.363L289.488,635.779z M249.242,620.029h12.83l-6.44-11.157L249.242,620.029z M237.824,606.041
	l6.408,11.076l6.343-11.076H237.824z M225.685,620.029h13.535l-6.775-11.71L225.685,620.029z M239.246,625.823h-14.299l7.179,12.434
	L239.246,625.823z M251.405,641.089l-7.148-12.355l-7.075,12.355H251.405z M262.81,625.823h-13.541l6.778,11.715L262.81,625.823z
	 M346.137,763.482l-17.654,0.322l-8.781-15.621l-8.904,15.385l-17.936-0.265l9.673,14.893l-9.243,15.971l17.949-0.569l8.453,16.159
	l9.199-15.896l17.437-0.024l-9.275-14.662L346.137,763.482z M958.39,732.336l-16.199,16.335c-1.213,1.222-3.119,1.422-4.558,0.477
	l-24.897-16.335c-1.021-0.669-1.635-1.807-1.635-3.028c0-1.221,0.614-2.359,1.635-3.028l24.897-16.336
	c1.439-0.945,3.346-0.746,4.558,0.477l16.199,16.337c0.7,0.706,1.05,1.628,1.05,2.551S959.09,731.63,958.39,732.336z
	 M950.717,729.785L939.131,718.1l-17.806,11.685l17.806,11.683L950.717,729.785z M360.929,489.001l-17.654,0.322l-8.781-15.621
	l-8.904,15.385l-17.936-0.265l9.673,14.893l-9.243,15.971l17.949-0.569l8.453,16.159l9.199-15.896l17.437-0.024l-9.275-14.662
	L360.929,489.001z M928.95,800.829l-14.406-7.418l2.067-1.119c1.211-0.655,1.897-1.901,1.897-3.187c0-0.583-0.14-1.174-0.437-1.722
	c-0.952-1.759-3.151-2.412-4.91-1.46l-3.692,1.999l-0.828-21.486c-0.077-1.998-1.76-3.557-3.759-3.479
	c-1.999,0.078-3.579,1.808-3.479,3.759l0.965,25.051l-63.912,34.608l26.17-42.941c0.359-0.589,0.529-1.238,0.529-1.882
	c0-1.221-0.618-2.413-1.737-3.096c-1.708-1.041-3.936-0.501-4.977,1.208l-25.785,42.311v-69.544l21.958-14.386
	c1.061-0.695,1.637-1.852,1.637-3.032c0-0.682-0.191-1.37-0.593-1.982c-1.095-1.674-3.34-2.14-5.014-1.044l-17.988,11.785v-5.177
	c0-2.001-1.621-3.622-3.622-3.622c-2,0-3.622,1.621-3.622,3.622v4.808l-17.425-11.416c-1.674-1.097-3.919-0.63-5.014,1.044
	c-1.097,1.672-0.629,3.916,1.044,5.014l21.395,14.018v73.074l-30.185-45.672c-1.103-1.668-3.35-2.126-5.019-1.024
	c-1.669,1.105-2.127,3.352-1.024,5.02l27.413,41.477l-59.243-33.147l0.966-25.076c0.002-0.048,0.003-0.095,0.003-0.143
	c0-1.936-1.53-3.541-3.481-3.616c-1.999-0.078-3.683,1.481-3.76,3.479l-0.824,21.386l-6.974-3.902
	c-1.746-0.976-3.953-0.354-4.929,1.392c-0.976,1.749-0.352,3.953,1.392,4.929l7.132,3.99l-16.106,8.293
	c-1.778,0.915-2.475,3.099-1.562,4.878c0.915,1.778,3.1,2.477,4.878,1.562l20.373-10.49l60.682,33.952h-51.789
	c-2,0-3.622,1.621-3.622,3.622c0,0.216,0.027,0.424,0.063,0.629h136.371c0.036-0.205,0.063-0.414,0.063-0.63
	c0-2.001-1.622-3.622-3.622-3.622h-50.113l64.338-34.839l18.803,9.681c1.778,0.915,3.963,0.216,4.878-1.562
	c0.273-0.531,0.403-1.097,0.403-1.655C930.915,802.739,930.198,801.472,928.95,800.829z M725.199,716.612
	c0,1.6-1.297,2.898-2.898,2.898h-11.363l5.885,9.954c0.273,0.462,0.403,0.97,0.403,1.471c0,0.991-0.508,1.956-1.423,2.497
	c-1.376,0.815-3.154,0.358-3.968-1.02l-7.628-12.903h-7.37l-10.106,17.504l2.965,5.126l15.01,0.169
	c1.589,0.019,2.865,1.312,2.865,2.898c0,0.01,0,0.021,0,0.033c-0.018,1.6-1.33,2.883-2.93,2.865l-11.57-0.131l6.715,11.606
	c0.264,0.457,0.389,0.956,0.389,1.449c0,1-0.517,1.973-1.446,2.511c-1.385,0.801-3.158,0.328-3.96-1.057l-6.728-11.628l-5.851,9.874
	c-0.816,1.377-2.593,1.832-3.97,1.016c-1.378-0.816-1.831-2.595-1.016-3.97l7.509-12.671l-2.622-4.532h-20.894l-2.607,4.552
	l7.402,12.821c0.263,0.456,0.388,0.955,0.388,1.446c0,1.002-0.519,1.975-1.449,2.513c-1.386,0.799-3.158,0.325-3.959-1.061
	l-5.715-9.899l-6.347,11.083c-0.795,1.388-2.565,1.869-3.954,1.074c-1.388-0.794-1.87-2.566-1.074-3.954l6.404-11.182h-11.619
	c-1.6,0-2.898-1.297-2.898-2.897c0-1.6,1.297-2.898,2.898-2.898h14.937l2.523-4.405l-10.539-18.252h-6.491l-7.284,12.922
	c-0.785,1.393-2.552,1.886-3.947,1.1c-1.393-0.787-1.884-2.555-1.101-3.947l5.68-10.076h-12.322c-1.6,0-2.898-1.297-2.898-2.898
	s1.297-2.898,2.898-2.898h12.219l-5.843-9.884c-0.812-1.379-0.358-3.155,1.02-3.968c1.376-0.815,3.154-0.358,3.968,1.02
	l7.586,12.832h7.254l10.103-17.499l-3.03-5.236H638.69c-1.6,0-2.898-1.297-2.898-2.897c0-1.6,1.297-2.898,2.898-2.898h11.359
	l-6.45-11.148c-0.801-1.385-0.328-3.158,1.057-3.96c1.385-0.801,3.158-0.328,3.96,1.057l6.535,11.295l5.845-10.122
	c0.8-1.387,2.572-1.861,3.958-1.061c0.93,0.538,1.449,1.511,1.449,2.513c0,0.491-0.124,0.989-0.388,1.446l-7.514,13.015l3.306,5.714
	h19.423l3.438-6.003l-7.44-12.556c-0.815-1.375-0.362-3.154,1.016-3.97c1.377-0.816,3.153-0.361,3.97,1.016l5.765,9.729
	l6.302-11.004c0.795-1.388,2.565-1.869,3.953-1.074c0.934,0.535,1.457,1.513,1.457,2.517c0,0.488-0.123,0.984-0.384,1.437
	l-6.386,11.152l11.743-0.134c1.6-0.018,2.912,1.265,2.93,2.865c0,0.011,0,0.023,0,0.032c0,1.586-1.276,2.879-2.865,2.898
	l-15.149,0.172l-3.281,5.729l9.8,16.975h8.166l7.245-12.851c0.786-1.393,2.552-1.886,3.947-1.101
	c0.944,0.532,1.475,1.515,1.475,2.527c0,0.483-0.12,0.97-0.374,1.42l-5.64,10.005h11.384
	C723.902,713.715,725.199,715.012,725.199,716.612z M676.578,713.714h12.83l-6.44-11.157L676.578,713.714z M665.159,699.726
	l6.408,11.076l6.343-11.076H665.159z M653.021,713.714h13.535l-6.775-11.71L653.021,713.714z M666.582,719.509h-14.299l7.179,12.434
	L666.582,719.509z M678.74,734.774l-7.148-12.355l-7.075,12.355H678.74z M690.146,719.509h-13.541l6.778,11.715L690.146,719.509z
	 M572.816,805.709l-8.904,15.385l-17.936-0.265l9.673,14.893l-0.554,0.957h35.087l9.069-15.671l-17.654,0.322L572.816,805.709z
	 M636.173,570.054c1.178-0.665,1.841-1.893,1.841-3.156c0-0.604-0.15-1.215-0.468-1.778c-0.983-1.742-3.192-2.355-4.935-1.372
	l-17.674,9.978c-1.742,0.984-2.358,3.195-1.372,4.935c0.983,1.742,3.192,2.355,4.935,1.372L636.173,570.054z M548.684,734.106
	v-20.013l7.795,4.362c1.746,0.976,3.953,0.354,4.929-1.392c0.313-0.56,0.461-1.167,0.461-1.766c0-1.269-0.668-2.5-1.853-3.163
	l-8.265-4.624l15.561-8.918c1.167-0.669,1.821-1.89,1.821-3.145c0-0.611-0.154-1.231-0.479-1.798
	c-0.995-1.736-3.207-2.336-4.943-1.341l-19.331,11.078l-59.761-33.437h49.683c2.001,0,3.622-1.621,3.622-3.622
	s-1.621-3.622-3.622-3.622h-50.113l64.338-34.839l18.802,9.681c1.778,0.915,3.963,0.216,4.878-1.562
	c0.273-0.531,0.403-1.097,0.403-1.655c0-1.313-0.717-2.58-1.965-3.223l-14.406-7.418l2.067-1.119
	c1.211-0.655,1.897-1.901,1.897-3.187c0-0.583-0.14-1.174-0.437-1.722c-0.952-1.759-3.151-2.412-4.909-1.46l-3.692,2l-0.828-21.486
	c-0.077-1.998-1.76-3.557-3.759-3.479c-1.999,0.078-3.58,1.808-3.479,3.759l0.965,25.051l-63.912,34.608l26.169-42.941
	c0.359-0.589,0.529-1.238,0.529-1.882c0-1.221-0.618-2.413-1.737-3.096c-1.708-1.041-3.936-0.501-4.977,1.208l-25.785,42.311
	v-69.544l21.958-14.386c1.061-0.695,1.637-1.852,1.637-3.032c0-0.682-0.191-1.37-0.593-1.982c-1.095-1.674-3.34-2.14-5.014-1.044
	l-17.988,11.785v-5.177c0-2.001-1.621-3.622-3.622-3.622c-2.001,0-3.622,1.621-3.622,3.622v4.808l-17.425-11.416
	c-1.674-1.097-3.919-0.629-5.014,1.044c-1.096,1.672-0.629,3.916,1.044,5.014l21.395,14.017v73.074l-30.185-45.672
	c-1.104-1.668-3.35-2.126-5.019-1.024c-1.669,1.105-2.127,3.352-1.024,5.02l27.413,41.477l-59.243-33.147l0.966-25.076
	c0.001-0.048,0.003-0.095,0.003-0.143c0-1.936-1.531-3.541-3.482-3.616c-1.999-0.078-3.683,1.481-3.759,3.479l-0.824,21.386
	l-6.974-3.902c-1.746-0.976-3.953-0.354-4.929,1.392c-0.976,1.749-0.353,3.953,1.392,4.929l7.132,3.99l-16.106,8.293
	c-1.778,0.915-2.476,3.1-1.562,4.878c0.915,1.778,3.1,2.477,4.878,1.562l20.373-10.49l60.682,33.952h-51.789
	c-2.001,0-3.622,1.621-3.622,3.622c0,2.001,1.621,3.622,3.622,3.622h50.553l-57.718,31.254l-18.479-10.59
	c-1.736-0.995-3.948-0.395-4.943,1.341c-0.993,1.737-0.395,3.947,1.341,4.943l14.591,8.362l-8.908,4.824
	c-1.76,0.952-2.412,3.155-1.46,4.909c0.952,1.759,3.151,2.412,4.909,1.46l9.494-5.141v21.101c0,2.001,1.621,3.622,3.622,3.622
	c2.001,0,3.622-1.621,3.622-3.622v-25.023L460,675.803l-27.127,44.513c-1.04,1.705-0.501,3.936,1.208,4.977
	c1.708,1.041,3.936,0.501,4.977-1.208l28.049-46.026v69.288l-21.395,14.019c-1.675,1.096-2.142,3.342-1.044,5.014
	c1.097,1.674,3.34,2.141,5.014,1.044l17.425-11.418v3.796c0,2.001,1.621,3.622,3.622,3.622c2.001,0,3.622-1.621,3.622-3.622v-4.165
	l17.989,11.787c1.673,1.097,3.917,0.629,5.014-1.044c0.402-0.613,0.593-1.3,0.593-1.982c0-1.18-0.576-2.337-1.637-3.032
	l-21.958-14.388v-67.463l27.795,42.054c1.103,1.668,3.35,2.126,5.019,1.024c1.054-0.697,1.624-1.849,1.624-3.025
	c0-0.686-0.193-1.38-0.599-1.995l-27.414-41.479l60.665,33.942v24.066c0,2.001,1.621,3.622,3.622,3.622
	C547.063,737.728,548.684,736.106,548.684,734.106z M370.476,390.378c-0.802,1.385-2.575,1.858-3.96,1.057l-11.148-6.45v11.359
	c0,1.6-1.298,2.898-2.898,2.898c-1.6,0-2.898-1.298-2.898-2.898v-14.712l-5.237-3.03l-17.499,10.103v7.254l12.832,7.586
	c1.378,0.815,1.835,2.592,1.02,3.968c-0.814,1.378-2.589,1.832-3.968,1.02l-9.884-5.843v12.219c0,1.6-1.297,2.898-2.898,2.898
	c-1.6,0-2.898-1.298-2.898-2.898v-12.322l-10.076,5.68c-1.392,0.784-3.161,0.293-3.947-1.1c-0.785-1.395-0.293-3.162,1.1-3.947
	l12.923-7.284v-6.491l-18.252-10.539l-4.405,2.523v14.937c0,1.6-1.297,2.898-2.898,2.898s-2.898-1.297-2.898-2.898v-11.619
	l-11.182,6.404c-1.388,0.797-3.161,0.314-3.954-1.074c-0.795-1.389-0.314-3.159,1.074-3.954l11.083-6.347l-9.899-5.715
	c-1.386-0.801-1.86-2.572-1.061-3.959c0.538-0.929,1.511-1.449,2.513-1.449c0.491,0,0.99,0.125,1.446,0.388l12.821,7.402
	l4.552-2.607v-10.514h5.796v7.195l12.355-7.075l-0.207-0.12h12.077l-0.253,0.145l11.076,6.408v-6.553h5.795v9.906l5.714,3.306
	l13.015-7.514c0.457-0.263,0.955-0.388,1.446-0.388c1.002,0,1.975,0.519,2.513,1.449c0.799,1.386,0.325,3.158-1.061,3.958
	l-10.122,5.844l11.295,6.535C370.804,387.22,371.277,388.993,370.476,390.378z M321.043,368.453l-12.434,7.12l12.434,7.179V368.453z
	 M338.547,375.253l-11.71-6.775v13.535L338.547,375.253z M962.212,723.526l-17.81-17.81c-1.285-1.28-1.419-3.311-0.323-4.754
	l17.81-23.422c0.685-0.9,1.751-1.429,2.883-1.429c1.132,0,2.199,0.529,2.883,1.429l17.811,23.422
	c0.495,0.652,0.738,1.423,0.738,2.192c0,0.932-0.358,1.86-1.061,2.562l-17.81,17.81
	C965.919,724.941,963.627,724.941,962.212,723.526z M951.76,702.829l13.013,13.014l13.013-13.014l-13.013-17.114L951.76,702.829z
	 M1087.263,740.368l-17.748,9.85c-1.75,0.969-2.384,3.179-1.409,4.923c0.97,1.749,3.175,2.38,4.923,1.409l17.748-9.85
	c1.193-0.661,1.865-1.896,1.865-3.169c0-0.595-0.146-1.198-0.456-1.754C1091.216,740.029,1089.011,739.398,1087.263,740.368z
	 M155.745,439.42l17.411-17.274c1.258-1.248,3.233-1.403,4.669-0.368l23.958,17.274c0.945,0.682,1.504,1.776,1.504,2.938
	c0,0.009,0,0.016,0,0.024c-0.007,1.171-0.581,2.268-1.542,2.941l-24.232,17.001c-1.435,1.006-3.386,0.84-4.631-0.395l-17.137-17.001
	C154.376,443.206,154.372,440.781,155.745,439.42z M163.439,441.991l12.395,12.296l17.583-12.337l-17.337-12.501L163.439,441.991z
	 M250.144,800.829l-14.406-7.418l2.067-1.119c1.211-0.655,1.897-1.901,1.897-3.187c0-0.583-0.14-1.174-0.437-1.722
	c-0.952-1.759-3.151-2.412-4.91-1.46l-3.692,1.999l-0.828-21.486c-0.077-1.998-1.76-3.557-3.759-3.479
	c-1.999,0.078-3.579,1.808-3.479,3.759l0.965,25.051l-63.912,34.608l26.17-42.941c0.359-0.589,0.529-1.238,0.529-1.882
	c0-1.221-0.618-2.413-1.738-3.096c-1.708-1.041-3.936-0.501-4.977,1.208l-25.785,42.311v-69.544l21.958-14.386
	c1.061-0.695,1.637-1.852,1.637-3.032c0-0.682-0.191-1.37-0.593-1.982c-1.095-1.674-3.34-2.14-5.014-1.044l-17.988,11.785v-5.177
	c0-2.001-1.621-3.622-3.622-3.622c-2,0-3.622,1.621-3.622,3.622v4.808l-17.425-11.416c-1.674-1.097-3.919-0.63-5.014,1.044
	c-1.097,1.672-0.629,3.916,1.044,5.014l21.395,14.018v73.074l-30.185-45.672c-1.103-1.668-3.35-2.126-5.019-1.024
	c-1.669,1.105-2.127,3.352-1.024,5.02l27.413,41.477l-59.243-33.147l0.966-25.076c0.002-0.048,0.003-0.095,0.003-0.143
	c0-1.936-1.53-3.541-3.481-3.616c-1.999-0.078-3.683,1.481-3.759,3.479l-0.824,21.386l-6.974-3.902
	c-1.746-0.976-3.953-0.354-4.929,1.392c-0.976,1.749-0.352,3.953,1.392,4.929l7.132,3.99l-16.106,8.293
	c-1.778,0.915-2.475,3.099-1.562,4.878c0.915,1.778,3.1,2.477,4.878,1.562l20.373-10.49l60.682,33.952H84.546
	c-2,0-3.622,1.621-3.622,3.622c0,0.216,0.027,0.424,0.063,0.629h136.371c0.036-0.205,0.063-0.414,0.063-0.63
	c0-2.001-1.622-3.622-3.622-3.622h-50.113l64.338-34.839l18.803,9.681c1.778,0.915,3.963,0.216,4.878-1.562
	c0.273-0.531,0.403-1.097,0.403-1.655C252.109,802.739,251.392,801.472,250.144,800.829z M435.95,460.221
	c0-1.221,0.614-2.359,1.635-3.028l24.899-16.336c0.607-0.399,1.299-0.594,1.985-0.594c0.935,0,1.863,0.361,2.562,1.061
	l16.335,16.336c1.415,1.415,1.415,3.707,0,5.121l-16.335,16.335c-1.211,1.214-3.111,1.41-4.547,0.467l-24.899-16.335
	C436.564,462.579,435.951,461.442,435.95,460.221z M446.175,460.221l17.819,11.69l11.69-11.69l-11.69-11.691L446.175,460.221z
	 M1052.806,599.907c1.999,0.078,3.682-1.481,3.759-3.479l0.828-21.486l3.693,1.999c1.759,0.952,3.957,0.298,4.909-1.46
	c0.297-0.547,0.437-1.139,0.437-1.722c0-1.286-0.686-2.532-1.897-3.187l-2.067-1.119l14.406-7.417
	c1.248-0.643,1.965-1.91,1.965-3.223c0-0.559-0.13-1.125-0.403-1.655c-0.915-1.778-3.1-2.477-4.878-1.562l-18.802,9.681
	l-64.338-34.839h50.113c2,0,3.622-1.621,3.622-3.622c0-2.001-1.621-3.622-3.622-3.622h-49.683l59.761-33.437l19.331,11.078
	c1.736,0.995,3.948,0.395,4.943-1.341c0.325-0.568,0.48-1.187,0.48-1.798c0-1.254-0.654-2.476-1.821-3.145l-15.561-8.918
	l8.265-4.624c1.186-0.664,1.853-1.894,1.853-3.163c0-0.598-0.148-1.205-0.461-1.766c-0.976-1.746-3.183-2.368-4.929-1.392
	l-7.795,4.362v-20.013c0-2.001-1.621-3.622-3.622-3.622s-3.622,1.621-3.622,3.622v24.066l-60.665,33.942l27.414-41.479
	c0.406-0.615,0.599-1.309,0.599-1.995c0-1.176-0.57-2.327-1.624-3.025c-1.67-1.102-3.916-0.644-5.019,1.024l-27.794,42.054v-67.462
	l21.958-14.388c1.061-0.695,1.637-1.852,1.637-3.032c0-0.682-0.191-1.369-0.593-1.982c-1.096-1.674-3.34-2.141-5.014-1.044
	l-17.989,11.787v-4.165c0-2.001-1.621-3.622-3.622-3.622c-2.001,0-3.622,1.621-3.622,3.622v3.797l-17.425-11.418
	c-1.674-1.097-3.918-0.629-5.014,1.044c-1.098,1.672-0.631,3.918,1.044,5.014l21.396,14.019v69.288l-28.049-46.026
	c-1.041-1.709-3.269-2.249-4.977-1.208c-1.709,1.041-2.248,3.272-1.208,4.977l27.127,44.513L907.9,485.755v-25.024
	c0-2.001-1.621-3.622-3.622-3.622c-2,0-3.622,1.621-3.622,3.622v21.101l-9.494-5.141c-1.759-0.952-3.957-0.298-4.909,1.46
	c-0.952,1.755-0.3,3.957,1.46,4.909l8.908,4.824l-14.591,8.362c-1.736,0.996-2.334,3.206-1.341,4.943
	c0.995,1.736,3.207,2.336,4.943,1.341l18.479-10.59l57.718,31.254h-50.553c-2,0-3.622,1.621-3.622,3.622
	c0,2.001,1.621,3.622,3.622,3.622h51.789l-60.682,33.952L882.01,553.9c-1.778-0.915-3.963-0.216-4.878,1.562
	c-0.914,1.778-0.216,3.963,1.562,4.878l16.106,8.293l-7.132,3.99c-1.745,0.976-2.368,3.18-1.392,4.929
	c0.976,1.746,3.183,2.369,4.929,1.392l6.974-3.902l0.824,21.386c0.077,1.998,1.76,3.557,3.759,3.479
	c1.951-0.075,3.482-1.681,3.482-3.616c0-0.048-0.001-0.095-0.003-0.143l-0.966-25.076l59.243-33.147l-27.413,41.477
	c-1.102,1.668-0.645,3.915,1.024,5.02c1.669,1.102,3.916,0.644,5.019-1.024l30.185-45.672V610.8l-21.396,14.017
	c-1.673,1.098-2.141,3.342-1.044,5.014c1.095,1.674,3.341,2.141,5.014,1.044l17.425-11.416v4.808c0,2.001,1.621,3.622,3.622,3.622
	c2,0,3.622-1.621,3.622-3.622v-5.177l17.988,11.786c1.674,1.096,3.919,0.629,5.014-1.044c0.402-0.612,0.593-1.3,0.593-1.982
	c0-1.18-0.575-2.337-1.637-3.032l-21.958-14.386v-69.544l25.785,42.311c1.042,1.709,3.27,2.25,4.977,1.208
	c1.119-0.682,1.737-1.875,1.737-3.096c0-0.644-0.17-1.293-0.529-1.882l-26.169-42.941l63.912,34.608l-0.965,25.051
	C1049.227,598.099,1050.807,599.83,1052.806,599.907z M152.174,448.25l17.81,17.81c0.703,0.702,1.061,1.63,1.061,2.562
	c0,0.768-0.243,1.539-0.739,2.191l-17.81,23.423c-0.685,0.9-1.752,1.429-2.884,1.429c-1.132,0-2.199-0.529-2.883-1.429
	l-17.81-23.423c-1.096-1.443-0.962-3.473,0.323-4.754l17.81-17.81C148.468,446.835,150.76,446.835,152.174,448.25z M162.627,468.946
	l-13.013-13.014l-13.013,13.014l13.013,17.114L162.627,468.946z M1018.446,729.761c0,0.008,0,0.015,0,0.024
	c0,1.163-0.559,2.257-1.504,2.938l-23.957,17.274c-1.436,1.035-3.411,0.88-4.669-0.368l-17.411-17.274
	c-1.374-1.361-1.37-3.786,0-5.141l17.137-17.001c1.245-1.235,3.196-1.401,4.631-0.395l24.232,17.001
	C1017.865,727.493,1018.439,728.59,1018.446,729.761z M1008.576,729.826l-17.583-12.337l-12.395,12.296l12.641,12.542
	L1008.576,729.826z M95.94,441.991c0-1.221,0.614-2.359,1.636-3.028l24.897-16.335c1.439-0.945,3.346-0.746,4.558,0.477
	l16.199,16.335c0.7,0.706,1.05,1.628,1.05,2.551c0,0.922-0.349,1.845-1.05,2.551l-16.199,16.337
	c-1.212,1.222-3.12,1.422-4.558,0.477l-24.897-16.336C96.554,444.35,95.94,443.212,95.94,441.991z M106.165,441.991l17.806,11.685
	l11.587-11.685l-11.587-11.683L106.165,441.991z M130.718,419.398c-1.213-1.211-1.41-3.111-0.467-4.547l16.335-24.898
	c0.669-1.021,1.807-1.635,3.028-1.635c1.221,0,2.359,0.614,3.028,1.635l16.336,24.898c0.399,0.607,0.594,1.299,0.594,1.985
	c0,0.935-0.361,1.863-1.061,2.562l-16.336,16.335c-1.415,1.415-3.707,1.415-5.122,0L130.718,419.398z M137.924,416.361l11.69,11.69
	l11.692-11.69l-11.692-17.819L137.924,416.361z M58.257,585.429l17.949-0.569l8.453,16.159l9.199-15.896l17.437-0.024l-9.275-14.662
	l9.082-15.692l-17.654,0.322l-8.781-15.621l-8.904,15.385l-17.936-0.265l9.673,14.893L58.257,585.429z M983.67,752.377
	c0.701,0.699,1.061,1.627,1.061,2.562c0,0.686-0.195,1.378-0.594,1.985l-16.336,24.899c-0.669,1.021-1.807,1.635-3.028,1.635
	c-1.221,0-2.359-0.614-3.028-1.635l-16.335-24.899c-0.944-1.436-0.747-3.336,0.467-4.547l16.335-16.335
	c1.415-1.415,3.707-1.415,5.121,0L983.67,752.377z M976.465,755.415l-11.691-11.69l-11.69,11.69l11.69,17.819L976.465,755.415z"/>
</svg>
