<?xml version="1.0" encoding="UTF-8"?>
<svg id="Layer_1" data-name="Layer 1" xmlns="http://www.w3.org/2000/svg" viewBox="0 0 366.85 336.36">
  <defs>
    <style>
      .cls-1 {
        fill: #9b4a31;
        stroke-width: 0px;
      }
    </style>
  </defs>
  <g>
    <path class="cls-1" d="M88.23,103.21l7.09,23.89,2.94,9.56-.75.42c-.43.32-.7.58-.76.96.05.16,1.27,3.33,2.8,6.93,2.11,4.84,2.91,6.72,3.33,6.93.85.43,2.9-.41,3.17-1.21.33-.64-.99-5.2-5.66-20.61-2.05-6.28-5.36-17.5-7.56-24.81-2.21-7.3-4.88-16.59-6.14-20.46-3.57-12.03-4.88-16.59-4.35-16.05.27.27,2.44,4.19,4.72,8.44,12.35,22,20.37,34,30.32,45.37,11.39,13.04,19.06,19.63,26.86,23.32,3.15,1.47,4.92,1.96,7.17,1.76,3-.09,6.23-1.68,8.38-3.81,7.82-7.72,5.29-32.39-6.97-68.32-5.21-15.41-9.65-25.73-15.84-37.61-3.81-7.31-4.87-8.93-5.94-9.47-.85-.43-2.57-.23-3.06.46q-.38.48.47,1.45c1.6,1.62,8.37,15.27,12.76,25.43,4.75,11.28,5.86,14.13,9.54,25.41,3.94,12.08,5.46,17.83,7.39,27,4.37,21.03,3.16,34.26-3.44,36.42-2.58.84-7.12-.53-12.09-3.72-5.44-3.57-9.76-7.51-15.78-13.92-12.83-13.64-20.64-25-34.74-49.63-7.42-12.91-12.57-21.57-13.42-22.54-.42-.75-1.07-1.08-1.81-1.19-1.07,0-2.74.36-2.9.95-.16.59,1.52,6.28,6.08,21.37l8.19,27.27Z"/>
    <path class="cls-1" d="M170.89,90.49c2.63-.14,6.82-1.51,9.34-3.05,4.14-2.6,7.17-6.98,9.13-12.43,0,0,0,0,0,0,1.79,5.62,4.27,9.06,6.48,8.94,3-.09,4.41-1.79,5.51-6.61l.44-2.46.64.86c1.28,1.72,3.25,3.4,4.32,3.4,1.66.17,3.54-.62,4.46-1.63,1.62-1.6,2.17-4.81,1.61-8.19-.42-1.82-.26-1.88,1.19-1.81,1.93-.1,5.96-1.41,7.73-2.52,2.15-1.59,4.96-5.01,4.65-5.97-.05-.16-.32-.43-.69-.49-.96-.22-2.2.36-2.9,1.48-1.08,1.6-3.29,3.57-5.12,4.52-1.67.9-1.99,1.01-2.95.79-1.5-.22-2.73-1.25-3.3-3.02-.47-1.45-.95-1.83-2.4-1.35-1.29.42-1.61,1.06-1.14,2.51.63,1.93,1.56,6.98,1.6,9.28-.01,2.14-.51,3.91-1.26,3.8-1.12-.17-3.3-3.56-4.83-7.16-1.16-2.47-1.59-2.69-3.36-2.11-1.88.79-1.4,1.71-1.47,3.69-.19,4.88-1.4,10.44-2.05,10.12-.48-.38-1.85-3.49-3.43-8.33q-2-6.12-3.93-5.49c-1.55.51-1.71.73-.83,3.95-.6.97-1.55,2.67-2.44,4.6-2.98,5.61-4.23,7.26-7.08,9.44-1.24,1.12-2.21,1.43-4.41,2.33-4.19,1.37-5.58.93-6.8-1.7l-.58-1.24,1.56-.15c4.83-1.04,9.53-6.85,8.32-10.56-.37-1.13-.47-1.45-1.65-1.78-.69-.49-1.77-.49-2.78-.34-.7.05-1.55.15-2.15.52-4.78,1.74-8.41,7.56-7.26,12.71.89,3.81,3.4,5.49,7.84,5.46ZM166.98,81.25c.17-1.66,1.74-4.49,2.93-5.77.81-.8,1.72-1.28,2.37-1.49.32-.11.64-.21.86-.1,1.01.92-.4,4.77-2.29,6.63-1.51,1.38-2.85,2.18-3.44,2.01s-.64-.33-.42-1.29Z"/>
    <path class="cls-1" d="M260.94,212.1c-1.13.37-1.29.42-1.66-.17-.1-.32-2.47-7.04-4.89-14.98-5.05-15.47-5.31-16.27-7.14-22.98l-1.26-4.4,2.85-1.11c3.17-1.21,17.99-6.59,21.22-7.64,2.26-.74,2.31-1.11.39-2.09-.96-.76-1.33-.81-2.41-.28l-8.33,2.9c-5.48,1.79-10.74,3.68-12.14,4.32l-2.36.95-.84-2.58-2.41-8.48-1.83-6.71c-.16-.48-.53-1.08-.74-1.18-.64-.33-2.36-.12-2.68.52-.49.69.4,4.5,3.12,14.49,1.05,3.22,1.31,5.1,1.2,5.31-.11.21-2.26,1.27-6.56,2.85l-6.77,2.74c-.91.48-.44,1.39.79,1.88,1.02.38,1.39.44,2.3-.04l11.33-4.06.47,1.45,2.67,9.29c.77,2.73,1.65,5.68,2.59,8.7-.41.44-1.18,1.78-1.87,3.37-2.33,4.33-3.52,6.14-5.84,8.32-2.54,2.61-4.85,4.26-7.54,5.31-1.24.58-2.26.74-3.16.14-2.35-1.19-3.14-4.15-1.99-7.73.88-2.78,3.68-6.19,5.13-6.13.32-.1.91.59,1.44,1.13.96,1.29,1.97,1.67,3.21,1.09.48-.16.54-.53.33-1.18-.31-1.5-1.8-2.8-3.68-3.08-1.12-.17-1.66-.17-3.38.57-1.61.53-2.36.95-3.71,2.28-2.44,2.41-3.92,5.84-3.97,8.83-2.71,5.04-3.97,6.65-6.7,8.73-1.24,1.12-2.21,1.43-4.41,2.33-4.19,1.37-5.58.93-6.8-1.7l-.58-1.24,1.55-.15c4.83-1.04,9.53-6.85,8.32-10.56-.37-1.13-.47-1.45-1.65-1.78-.69-.49-1.77-.49-2.78-.34-.7.05-1.56.15-2.15.52-4.32,1.57-7.69,6.49-7.45,11.22-1.11,6.01-2.66,10.44-4.05,10.89-.64.21-2.78-.87-3.85-1.95-1.76-1.57-3.45-4.58-4.45-7.64-.89-2.74-.95-2.9-.66-5.85.29-4.02.23-10.77-.07-14.42-.86-7.56-1.38-10.24-2.91-14.92-1.63-4.99-2.32-6.02-4.25-6.46-1.5-.22-3.48.25-4.24,1.21-2,2.61.17,16.35,5.47,34.23l2.05,6.82-.6,2.51c-1.11,5.35-2.9,10.22-4.74,12.24q-.92,1.01-1.88.79c-1.87-.28-4.21-3.08-6.22-7.59l-1.22-2.63.6-1.98c2.29-6.63,2.4-16.12.06-27.12-1.82-8.85-4.46-14.77-7.03-15.53-.75-.11-1.82-.12-2.63.14-.97.32-1.72.74-2.26,1.27-1.78,2.19-1.56,8.89.63,19.94l.98,5.74c.83,4.19,3.09,12.18,4.56,16.16.26.73.53,1.42.79,2.08-.29.24-.59.5-.92.81-2.48,2.23-4.47,3.78-6.14,4.68l-1.4.63-.37-1.13c-1.42-4.35-5.16-5.98-10.15-4.35-2.63.68-3.93,2.17-4.21,4.58-.11.75-.33,1.71-.61,2.52-.22.43-.17,1.66-.23,2.57.12,1.26.39,2.43.78,3.5-.18.83-.37,1.74-.55,2.67-1.5,7.98-2.93,15.04-4.08,18.62-4.38,15.51-11.96,26.72-21.96,32.12-10.11,5.62-18.31,5.62-26.31-.33-4.75-3.62-8.31-7.98-12.39-15.56-2.17-3.93-5.54-13.17-6.64-18.69-3.23-15.35-2.75-31.37,1.3-44.63,2.24-7.33,6.1-15.18,9.72-19.93,4.27-5.49,6.42-7.09,10.93-8.56,3.54-1.16,4.99-1.09,7.07.37,2.4,1.89,5.06,5.66,7.97,11.3,1.54,3.06,4.75,11.28,4.85,12.14,0,.54-.27.8-1.08,1.07-.81.26-1.08.53-1.13.9-.06.91,4.22,11.28,5.07,12.25.37.59.96.76,1.66.71,2.3-.04,3-.62,3.02-2.23.23-2.57-5.4-18.74-8.42-24.7-4.08-8.12-8.07-12.7-12.02-13.9-3.32-.88-7.02-.74-10.45.74-10.26,4.06-19.63,19.6-23.34,38.28-3.26,16.22-1.26,38.2,4.5,51.47,3.6,7.74,7.31,13.66,11.73,17.92,7.51,7.17,15.21,9.47,24.34,7.39,6.65-1.46,14.45-5.43,18.98-9.58,8.41-7.56,14.32-18.93,17.52-33.17,1.02-4.8,1.84-9.05,2.38-12.48,1.17,1.09,2.53,1.76,3.96,1.86,1.77-.04,4.94-1.25,6.12-2.53,1.62-1.6,2.54-4.22,2.51-7.06-.15-1.56.12-1.82,2.81-3.41,1.24-.58,2.74-1.43,3.44-2.02.83-.5,1.87-1.36,2.83-2.26,2.93,6.47,5.92,9.46,9.18,9.57,1.82.12,4.45-1.1,5.96-2.48.81-.8,1.4-1.71,2.11-2.83.87-1.71,2.88-7,2.73-7.49-.05-.16.11-.21.11-.21.16-.05.96.76,1.7,1.94,2.76,3.55,5.7,4.91,9.09,3.81,3.21-1.05,4.62-2.75,5.99-7.8,1.34,1.33,3.31,1.94,6,1.93,2.63-.14,6.82-1.51,9.34-3.05,2.57-1.61,4.7-3.9,6.42-6.71,1.19,1.73,3.15,2.58,5.55,2.44,1.55-.15,6.07-1.62,8-2.79,5.3-3.1,9.63-8.17,11.34-13.57,4.38,13.66,9.57,27.58,10.76,28.28.64.33,2.68-.52,3.12-1.37.54-1.07.21-8.63-.48-9.11-.21-.11-.75-.11-1.34.26ZM146.36,220.98l.48-.16c1.18-.21,2.57.23,3.53.99.75.65,2.02,3.44,1.9,4.19,0,.54-.16.59-2.04.84-1.5.31-3,.09-4.17-.78-.91-.6-1.17-.86-1.28-1.72-.31-1.5.45-3,1.58-3.37ZM152.74,230.13c-.12,1.82-.72,3.8-1.48,4.76-.38.48-.81.8-1.4,1.17-.81.26-.97.32-1.82-.12-.48-.38-1.28-1.19-1.81-1.73-.52-.88-1.38-3.03-1.82-4.44,0-.5-.03-.92-.08-1.26.2.06.57.18.87.34,1.02.38,4.02.29,6.22-.07l1.34-.26v1.61ZM163.21,199.97c-.16-.48-.42-1.82-.57-2.84-2.24-9.61-3.08-20.92-1.9-21.13q.16-.05.21.11c.96.76,2.44,4.2,3.59,8.28,2.68,9.29,3.63,18.78,2.68,26.22-.11,1.29-.34,2.25-.34,2.25-.32.1-2.42-7.41-3.67-12.88ZM183.48,198.7l-1.52-5.74c-.63-2.47-1.2-4.78-1.15-5.15l-.63-2.47c-.99-5.2-1.64-11.59-1.16-11.74.48-.16,1.75,3.17,2.53,6.66,1.04,4.83,1.86,10.62,2.2,16.04.35,3.81.24,4.56-.28,2.41ZM204.32,208.48c.17-1.66,1.74-4.49,2.93-5.77.81-.8,1.72-1.28,2.37-1.49.32-.1.64-.21.86-.1,1.01.92-.41,4.77-2.29,6.63-1.51,1.38-2.85,2.18-3.44,2.01-.59-.16-.64-.33-.42-1.29Z"/>
    <path class="cls-1" d="M255.6,176.05c-.32.1-.59.37-.86.64-.27.27-.22.96.04,1.77.31,1.5.58,1.77,1.97,1.67.64-.21,1.61-.53,1.83-.95.22-.43-.57-2.84-1.05-3.22-.43-.22-1.29-.11-1.93.1Z"/>
    <path class="cls-1" d="M330.22,163.82c-1.34-.28-1.99.47-5.19,8.11-1.47,3.69-3.21,7.11-3.96,7.53-.54.53-1.86-1.89-3.4-5.49-2.43-6.34-3.06-7.2-5.1-7.43-1.34-.28-3.75.51-4.72,1.36-1.03,1.23-2.76,4.65-3.58,7.59l-.61,2.52-1.16-3.54c-.05-.16-.1-.31-.15-.47.02-.12,0-.19-.08-.25-1.19-3.52-1.72-3.82-3.38-3.28-1.52.5-1.81.72-.63,4.55-.27.23-.55.47-.85.75-2.48,2.23-4.47,3.78-6.14,4.68l-1.4.63-.37-1.13c-1.42-4.35-5.16-5.98-10.15-4.35-2.63.68-3.93,2.17-4.21,4.58-.11.75-.33,1.71-.6,2.52-.13.26-.17.81-.19,1.41-.13.32-.26.69-.42,1.1-1.85,4.7-4.02,8.44-6.07,10.36-.76.96-1.78,1.65-2.1,1.76-.37-.06-.8-.27-1.23-1.03-.9-1.13-2.38-5.64-3.11-8.97-.26-1.34-.04-2.3-1.32-2.96-.8-.27-1.82-.12-2.63.14-.43.32-.75.42-.81.8-.43.85,1.24,7.08,2.46,9.71,1.69,3.55,3.13,4.68,5.6,4.59,2.3-.04,4.46-1.1,6.34-2.96,1.19-1.28,1.94-2.24,3.57-5.44.27-.56.52-1.12.76-1.67,1.35,3.06,3.72,5.08,6.29,5.25,1.77-.04,4.94-1.26,6.13-2.53,1.62-1.6,2.54-4.22,2.51-7.06-.15-1.55.12-1.82,2.81-3.41,1.24-.58,2.74-1.43,3.44-2.02.75-.45,1.67-1.2,2.56-2,.13.39.26.79.4,1.22,1.21,3.71,2.47,7.04,2.63,7.52.27.27.75.65,1.12.7.54,0,1.18-.21,1.66-.36q.97-.32,1.69-5.19c.78-5.25,1.93-9.37,3.07-11.34,1.41-2.24,1.46-2.08,3.62,3.45,1.48,3.98,2.8,6.4,3.81,7.31,1.17.86,2.67,1.09,4.44.51,2.09-.68,3.44-2.02,4.8-4.95,1.41-2.78,3.65-9.03,3.98-11.28.33-1.18.28-1.34-.15-1.56ZM280.4,177.23l.48-.16c1.18-.21,2.57.23,3.53.99.75.65,2.02,3.44,1.9,4.19,0,.54-.16.59-2.04.84-1.5.31-3,.09-4.18-.78-.91-.59-1.17-.86-1.28-1.72-.31-1.5.45-3,1.58-3.37ZM286.77,186.38c-.12,1.82-.72,3.8-1.48,4.76-.38.48-.81.8-1.4,1.17-.81.26-.97.32-1.82-.12-.48-.38-1.28-1.19-1.81-1.73-.8-1.35-2.38-5.64-2.05-5.75,0,0,.59.16,1.02.38,1.02.38,4.02.29,6.22-.07l1.34-.26v1.61Z"/>
  </g>
  <path class="cls-1" d="M96.35,8.3C161.95-7.92,236.26-1.64,292.27,38.52c36.87,25.63,69.79,63.6,74.09,109.96,2.01,21.37-2.2,43.22-11.61,62.48-15.57,32.25-42.51,57.59-71.66,77.68-70.27,49.64-168.07,74.51-233.89,4.16-27.23-29.6-40.53-69.14-46.24-108.34C-8.74,113.17,13.55,44.86,81.32,11.6,7.15,49.19-9.34,124.75,7.53,200.91c7.8,38.41,25.01,76.44,55.41,102.12,66.02,55.33,154.95,28.45,218.8-16.38,30.01-20.59,57.67-46.85,72.8-80.47,23.62-53.56,4.01-106.46-36.95-144.96C284.93,29.81,242.58,8.97,197.57,3.12,163.92-1.47,129.36.34,96.35,8.3h0Z"/>
</svg>